<svg width="16" height="16" viewBox="0 0 16 16" fill="none" xmlns="http://www.w3.org/2000/svg">
  <path fill-rule="evenodd" clip-rule="evenodd" d="M1 3.86667C1 2.83574 1.7835 2 2.75 2H6.03823C6.29871 2 6.5489 2.10163 6.73559 2.28327L8.5 4L13 4C14.1046 4 15 4.89543 15 6V8.17071C14.6872 8.06015 14.3506 8 14 8H11C9.34315 8 8 9.34315 8 11V14H2.75C1.7835 14 1 13.1643 1 12.1333V3.86667Z" fill="#25324D" />
  <path fill-rule="evenodd" clip-rule="evenodd" d="M7.80265 4.71673L8.09379 5H8.5H13C13.5523 5 14 5.44772 14 6V8C14.3506 8 14.6872 8.06015 15 8.17071V6C15 4.89543 14.1046 4 13 4L8.5 4L6.73559 2.28327C6.5489 2.10163 6.29871 2 6.03823 2H2.75C1.7835 2 1 2.83574 1 3.86667V12.1333C1 13.1643 1.7835 14 2.75 14H8V13H2.75C2.3956 13 2 12.6738 2 12.1333V3.86667C2 3.32624 2.3956 3 2.75 3H6.03823L7.80265 4.71673Z" fill="#3574F0" />
  <!-- Nested Blender Logo -->
  <g transform="translate(13, 12) scale(0.07)">
      <!-- Outer Ring/Fingers Silhouette (Monochrome for small nested logo) -->
      <path d="M51.2,2.8 C49.6,1.4 47.4,-2.4 49.9,-4.9 C52.4,-7.3 55.4,-6.3 57.5,-4.7 C60.6,-2.4 85.8,17.4 88.8,19.7 C96.4,25.7 101.3,34.7 101.3,44.7 C101.3,62.7 85.6,77.3 66.2,77.3 C46.8,77.3 31.1,62.7 31.1,44.7 C31.1,44.6 31.1,44.5 31.1,44.5 C31.1,44.5 16,57.1 11.6,60.7 C7.6,63.9 3.7,63.6 1.4,60.6 C-0.4,58.2 -0.2,53.8 4.6,50.1 C11.7,44.5 40.1,22.4 40.1,22.4 C40.1,22.4 25.9,22.5 21.6,22.5 C16.1,22.5 14.8,19.7 14.8,17.2 C14.8,14.7 17.9,12.3 22,12.2 C29.9,12.1 62.1,12.2 62.1,12.2 C62.1,12.2 53.9,5.2 51.2,2.8 Z" fill="#3574F0" transform="translate(-66.2, -44.7)"/>
  </g>
</svg>
