<?xml version="1.0" encoding="UTF-8" standalone="no"?>
<!-- Copyright 2000-2022 JetBrains s.r.o. and contributors. Use of this source code is governed by the Apache 2.0 license. -->

<svg
   width="16"
   height="16"
   viewBox="0 0 16 16"
   fill="none"
   version="1.1"
   id="svg8"
   sodipodi:docname="addon_src_folder.svg"
   inkscape:version="1.4.3 (0d15f75042, 2025-12-25)"
   xmlns:inkscape="http://www.inkscape.org/namespaces/inkscape"
   xmlns:sodipodi="http://sodipodi.sourceforge.net/DTD/sodipodi-0.dtd"
   xmlns="http://www.w3.org/2000/svg"
   xmlns:svg="http://www.w3.org/2000/svg">
  <defs
     id="defs8" />
  <sodipodi:namedview
     id="namedview8"
     pagecolor="#ffffff"
     bordercolor="#000000"
     borderopacity="0.25"
     inkscape:showpageshadow="2"
     inkscape:pageopacity="0.0"
     inkscape:pagecheckerboard="0"
     inkscape:deskcolor="#d1d1d1"
     inkscape:zoom="49.5625"
     inkscape:cx="7.9899117"
     inkscape:cy="8"
     inkscape:window-width="3440"
     inkscape:window-height="1362"
     inkscape:window-x="0"
     inkscape:window-y="0"
     inkscape:window-maximized="1"
     inkscape:current-layer="svg8" />
  <path
     fill-rule="evenodd"
     clip-rule="evenodd"
     d="M1 3.86667C1 2.83574 1.7835 2 2.75 2H6.03823C6.29871 2 6.5489 2.10163 6.73559 2.28327L8.5 4L13 4C14.1046 4 15 4.89543 15 6V8.75777C14.285 8.27914 13.4251 8 12.5 8C10.0147 8 8 10.0147 8 12.5C8 13.026 8.09023 13.5308 8.25606 14H2.75C1.7835 14 1 13.1643 1 12.1333V3.86667Z"
     fill="#E7EFFD"
     id="path1" />
  <path
     fill-rule="evenodd"
     clip-rule="evenodd"
     d="M7.80265 4.71673L8.09379 5H8.5H13C13.5523 5 14 5.44772 14 6V8.25606C14.356 8.3819 14.6915 8.55127 15 8.75777V6C15 4.89543 14.1046 4 13 4L8.5 4L6.73559 2.28327C6.5489 2.10163 6.29871 2 6.03823 2H2.75C1.7835 2 1 2.83574 1 3.86667V12.1333C1 13.1643 1.7835 14 2.75 14H8.25606C8.14352 13.6816 8.06579 13.3467 8.02746 13H2.75C2.3956 13 2 12.6738 2 12.1333V3.86667C2 3.32624 2.3956 3 2.75 3H6.03823L7.80265 4.71673Z"
     fill="#3574F0"
     id="path2" />
  <path
     fill="#888888"
     d="m 12.206541,11.855892 c 0.01454,-0.259197 0.141256,-0.488223 0.333252,-0.650049 0.187881,-0.159085 0.440215,-0.256453 0.717259,-0.256453 0.275637,0 0.527971,0.09723 0.715891,0.256453 0.191965,0.161826 0.318154,0.390852 0.333236,0.650049 0.01455,0.266056 -0.09255,0.514279 -0.279771,0.698049 -0.192009,0.186496 -0.463557,0.304462 -0.769356,0.304462 -0.305843,0 -0.578754,-0.117131 -0.76937,-0.304462 -0.187885,-0.18377 -0.294855,-0.430621 -0.27977,-0.696677 z"
     id="path1-3"
     inkscape:label="Blender_Eye"
     style="fill:#3574f0;fill-opacity:1;stroke-width:0.0439682" />
  <path
     fill="#888888"
     d="m 10.560844,12.404458 c 0.0018,0.101487 0.03415,0.298966 0.0827,0.452582 0.102033,0.326377 0.275659,0.628087 0.515655,0.892776 0.246856,0.272911 0.551305,0.492356 0.902387,0.648663 0.368911,0.163211 0.769374,0.246882 1.184918,0.246882 0.415544,-5.72e-4 0.815963,-0.08561 1.184901,-0.250971 0.351087,-0.157714 0.655523,-0.377159 0.902361,-0.651433 0.241385,-0.267415 0.41418,-0.569125 0.515659,-0.895546 0.05144,-0.164555 0.08394,-0.331868 0.09695,-0.49918 0.01275,-0.164569 0.0074,-0.330509 -0.01605,-0.49645 -0.04577,-0.322283 -0.157712,-0.625365 -0.329101,-0.899648 -0.156351,-0.253714 -0.359308,-0.474509 -0.600694,-0.661023 l 5.28e-4,-4.09e-4 -2.4274,-1.8651247 c -0.0022,-0.00165 -0.004,-0.00343 -0.0063,-0.00494 -0.159087,-0.1223288 -0.427883,-0.1219167 -0.602054,6.878e-4 -0.176911,0.1239755 -0.197484,0.3291389 -0.03977,0.4580538 l -6.85e-4,6.859e-4 1.013472,0.82422 -3.0856785,0.00329 h -0.00412 c -0.2550772,2.714e-4 -0.5005607,0.1673156 -0.5485609,0.3798842 -0.049917,0.215313 0.1234277,0.394963 0.389484,0.394963 l -4.133e-4,9.63e-4 1.5634097,-0.003 -2.7976807,2.139402 c -0.00357,0.0026 -0.00741,0.0053 -0.010698,0.0079 -0.2633114,0.201617 -0.3483393,0.537578 -0.1823983,0.748801 0.1686837,0.215313 0.5266244,0.216676 0.7926763,0.0012 l 1.5222687,-1.24799 c 0,0 -0.02222,0.168684 -0.02043,0.268796 z m 3.922263,0.563646 c -0.314066,0.319561 -0.754276,0.501942 -1.228825,0.501942 -0.475868,8.35e-4 -0.916083,-0.178292 -1.230139,-0.497809 -0.153599,-0.156351 -0.266052,-0.334638 -0.335997,-0.525267 -0.06816,-0.18788 -0.09462,-0.386736 -0.07707,-0.586963 0.01659,-0.196111 0.07501,-0.383996 0.168684,-0.55268 0.09161,-0.165941 0.218056,-0.316796 0.373023,-0.444335 0.305825,-0.248227 0.693959,-0.384001 1.099874,-0.384001 0.407322,-5.45e-4 0.79543,0.13289 1.101229,0.381253 0.154988,0.126721 0.281177,0.277031 0.373027,0.442972 0.0937,0.168684 0.152262,0.355193 0.168706,0.552676 0.01728,0.200227 -0.0092,0.399082 -0.07734,0.586967 -0.06969,0.191997 -0.182424,0.370301 -0.336006,0.526608 z"
     id="path2-6"
     inkscape:label="Blender_Ring"
     style="fill:#3574f0;fill-opacity:1;stroke-width:0.0439682" />
</svg>
