<?xml version="1.0" encoding="UTF-8" standalone="no"?>
<!-- Copyright 2000-2025 JetBrains s.r.o. and contributors. Use of this source code is governed by the Apache 2.0 license. -->

<svg
   width="16"
   height="16"
   viewBox="0 0 16 16"
   fill="none"
   version="1.1"
   id="svg5"
   sodipodi:docname="blendFile_dark.svg"
   xml:space="preserve"
   inkscape:version="1.4.3 (0d15f75042, 2025-12-25)"
   xmlns:inkscape="http://www.inkscape.org/namespaces/inkscape"
   xmlns:sodipodi="http://sodipodi.sourceforge.net/DTD/sodipodi-0.dtd"
   xmlns="http://www.w3.org/2000/svg"
   xmlns:svg="http://www.w3.org/2000/svg"><defs
     id="defs5" /><sodipodi:namedview
     id="namedview5"
     pagecolor="#ffffff"
     bordercolor="#000000"
     borderopacity="0.25"
     inkscape:showpageshadow="2"
     inkscape:pageopacity="0.0"
     inkscape:pagecheckerboard="0"
     inkscape:deskcolor="#d1d1d1"
     inkscape:zoom="64"
     inkscape:cx="9.703125"
     inkscape:cy="8.3828125"
     inkscape:window-width="3440"
     inkscape:window-height="1366"
     inkscape:window-x="0"
     inkscape:window-y="44"
     inkscape:window-maximized="1"
     inkscape:current-layer="svg5" /><g
     style="fill:none"
     id="g6"
     transform="translate(0.00782501,0.015625)"><path
       d="m 10.992175,1.984375 c 0.5523,0 1,0.44772 1,1 v 6 h -6 c -0.55228,0 -1,0.44772 -1,1 v 4 c -0.55228,0 -1,-0.4477 -1,-1 v -7 h 2 c 1.10457,0 2,-0.89543 2,-2 v -2 z"
       fill="#45322b"
       id="path1-1" /><path
       d="m 6.992115,3.984315 c 0,0.06893 -0.00723,0.13617 -0.02051,0.20117 -0.09324,0.45569 -0.49624,0.79883 -0.97949,0.79883 h -1.58594 l 2.58594,-2.58594 z"
       fill="#45322b"
       id="path2-2" /><path
       fill-rule="evenodd"
       clip-rule="evenodd"
       d="m 10.992175,0.984375 c 1.1046,0 2,0.89543 2,2 v 6 h -1 v -6 c 0,-0.55228 -0.4477,-1 -1,-1 h -3 v 2 c 0,1.10457 -0.89543,2 -2,2 h -2 v 7 c 0,0.5523 0.44772,1 1,1 v 1 c -1.10457,0 -2,-0.8954 -2,-2 v -7.58594 c 4e-5,-0.26516 0.10547,-0.51953 0.29297,-0.70703 l 3.41406,-3.41406 c 0.1875,-0.1875 0.44187,-0.29293 0.70703,-0.29297 z m -6.58594,4 h 1.58594 c 0.55228,0 1,-0.44772 1,-1 v -1.58594 z"
       fill="#c77d55"
       id="path3-7" /><path
       id="path1305"
       d="m 243.13,-333.715 c 0.106,-1.891 1.032,-3.557 2.429,-4.738 1.37,-1.16 3.214,-1.869 5.226,-1.869 2.01,0 3.854,0.709 5.225,1.869 1.396,1.181 2.322,2.847 2.429,4.736 0.106,1.943 -0.675,3.748 -2.045,5.086 -1.397,1.361 -3.384,2.215 -5.609,2.215 -2.225,0 -4.216,-0.854 -5.612,-2.215 -1.371,-1.338 -2.15,-3.143 -2.043,-5.084 z"
       style="clip-rule:evenodd;fill-rule:nonzero;stroke-linejoin:round;stroke-miterlimit:2;fill:#ffffff"
       transform="matrix(0.29936344,0,0,0.299363,-63.802823,112.65251)"
       inkscape:label="blend_sclera" /><path
       id="path1309"
       d="m 243.13,-333.715 c 0.106,-1.891 1.032,-3.557 2.429,-4.738 1.37,-1.16 3.214,-1.869 5.226,-1.869 2.01,0 3.854,0.709 5.225,1.869 1.396,1.181 2.322,2.847 2.429,4.736 0.106,1.943 -0.675,3.748 -2.045,5.086 -1.397,1.361 -3.384,2.215 -5.609,2.215 -2.225,0 -4.216,-0.854 -5.612,-2.215 -1.371,-1.338 -2.15,-3.143 -2.043,-5.084 z"
       style="clip-rule:evenodd;fill-rule:nonzero;stroke-linejoin:round;stroke-miterlimit:2;fill:#265787"
       transform="matrix(0.14616791,0,0,0.14616791,-25.38382,61.581951)"
       inkscape:label="blend_eye" /><path
       id="path1313"
       d="m 230.94,-329.894 c 0.013,0.74 0.249,2.178 0.603,3.301 0.744,2.377 2.006,4.576 3.762,6.514 1.802,1.992 4.021,3.592 6.584,4.728 2.694,1.193 5.613,1.801 8.645,1.796 3.027,-0.004 5.946,-0.624 8.64,-1.826 2.563,-1.147 4.78,-2.754 6.579,-4.747 1.755,-1.946 3.015,-4.149 3.761,-6.526 0.375,-1.201 0.612,-2.42 0.707,-3.643 0.093,-1.205 0.054,-2.412 -0.117,-3.618 -0.334,-2.35 -1.147,-4.555 -2.399,-6.565 -1.145,-1.847 -2.621,-3.464 -4.376,-4.825 l 0.004,-0.003 -17.711,-13.599 c -0.016,-0.012 -0.029,-0.025 -0.046,-0.036 -1.162,-0.892 -3.116,-0.889 -4.394,0.005 -1.292,0.904 -1.44,2.399 -0.29,3.342 l -0.005,0.005 7.387,6.007 -22.515,0.024 h -0.03 c -1.861,0.002 -3.65,1.223 -4.004,2.766 -0.364,1.572 0.9,2.876 2.835,2.883 l -0.003,0.007 11.412,-0.022 -20.364,15.631 c -0.026,0.019 -0.054,0.039 -0.078,0.058 -1.921,1.471 -2.542,3.917 -1.332,5.465 1.228,1.574 3.839,1.577 5.78,0.009 l 11.114,-9.096 c 0,0 -0.162,1.228 -0.149,1.965 z m 28.559,4.112 c -2.29,2.333 -5.496,3.656 -8.965,3.663 -3.474,0.006 -6.68,-1.305 -8.97,-3.634 -1.119,-1.135 -1.941,-2.441 -2.448,-3.832 -0.497,-1.367 -0.69,-2.818 -0.562,-4.282 0.121,-1.431 0.547,-2.796 1.227,-4.031 0.668,-1.214 1.588,-2.311 2.724,-3.239 2.226,-1.814 5.06,-2.796 8.024,-2.8 2.967,-0.004 5.799,0.969 8.027,2.777 1.134,0.924 2.053,2.017 2.721,3.229 0.683,1.234 1.106,2.594 1.232,4.029 0.126,1.462 -0.067,2.911 -0.564,4.279 -0.508,1.395 -1.327,2.701 -2.446,3.841 z"
       style="clip-rule:evenodd;fill-rule:nonzero;stroke-linejoin:round;stroke-miterlimit:2;fill:#e87d0d"
       transform="matrix(0.14616791,0,0,0.14616791,-25.38382,61.581951)"
       inkscape:label="blend_fingers" /></g></svg>
