<?xml version="1.0" encoding="UTF-8" standalone="no"?>
<!DOCTYPE svg PUBLIC "-//W3C//DTD SVG 1.1//EN" "http://www.w3.org/Graphics/SVG/1.1/DTD/svg11.dtd">
<svg width="100%" height="100%" viewBox="0 0 67 67" version="1.1" xmlns="http://www.w3.org/2000/svg" xmlns:xlink="http://www.w3.org/1999/xlink" xml:space="preserve" xmlns:serif="http://www.serif.com/" style="fill-rule:evenodd;clip-rule:evenodd;stroke-linejoin:round;stroke-miterlimit:2;">
    <g id="Fingers" transform="matrix(1.12159,0,0,1.11031,-6.38394,1.37403)">
        <path d="M35.482,9.704C34.505,8.924 33.192,6.63 34.729,5.077C36.197,3.594 38.024,4.156 39.259,5.113C41.079,6.524 55.978,18.207 57.741,19.579C62.258,23.094 65.131,28.362 65.131,34.246C65.131,44.818 55.856,53.402 44.432,53.402C33.007,53.402 23.732,44.818 23.732,34.246C23.732,34.199 23.733,34.107 23.733,34.107C23.733,34.107 14.839,41.471 12.258,43.567C9.94,45.449 7.626,45.277 6.305,43.525C5.242,42.115 5.378,39.559 8.184,37.366C12.383,34.085 29.115,21.077 29.115,21.077C29.115,21.077 20.781,21.14 18.255,21.133C15.016,21.124 14.256,19.464 14.256,18.012C14.256,16.56 16.075,15.129 18.469,15.101C23.151,15.047 42.136,15.075 42.136,15.075C42.136,15.075 37.277,11.138 35.482,9.704ZM44.432,20.226C52.793,20.226 59.581,26.508 59.581,34.246C59.581,41.983 52.793,48.266 44.432,48.266C36.07,48.266 29.282,41.983 29.282,34.246C29.282,26.508 36.07,20.226 44.432,20.226Z" style="fill:rgb(175,177,179);"/>
    </g>
    <g id="Eye" transform="matrix(0.874197,0,0,1.09604,7.90206,2.9108)">
        <ellipse cx="41.225" cy="32.612" rx="11.974" ry="8.479" style="fill:rgb(175,177,179);"/>
    </g>
</svg>
