<?xml version="1.0" encoding="UTF-8"?>
<svg width="16" height="16" viewBox="0 0 16 16" version="1.1" xmlns="http://www.w3.org/2000/svg">
    <!-- Simplified Blender Logo paths adjusted for 16x16 icon (Light Theme) -->
    <g transform="translate(8, 8) scale(0.13)">
        <!-- Outer Ring/Fingers Silhouette (Inner ellipse removed for physical representation) -->
        <path d="M51.2,2.8 C49.6,1.4 47.4,-2.4 49.9,-4.9 C52.4,-7.3 55.4,-6.3 57.5,-4.7 C60.6,-2.4 85.8,17.4 88.8,19.7 C96.4,25.7 101.3,34.7 101.3,44.7 C101.3,62.7 85.6,77.3 66.2,77.3 C46.8,77.3 31.1,62.7 31.1,44.7 C31.1,44.6 31.1,44.5 31.1,44.5 C31.1,44.5 16,57.1 11.6,60.7 C7.6,63.9 3.7,63.6 1.4,60.6 C-0.4,58.2 -0.2,53.8 4.6,50.1 C11.7,44.5 40.1,22.4 40.1,22.4 C40.1,22.4 25.9,22.5 21.6,22.5 C16.1,22.5 14.8,19.7 14.8,17.2 C14.8,14.7 17.9,12.3 22,12.2 C29.9,12.1 62.1,12.2 62.1,12.2 C62.1,12.2 53.9,5.2 51.2,2.8 Z M66.2,20.7 C80.4,20.7 91.9,31.4 91.9,44.7 C91.9,57.9 80.4,68.6 66.2,68.6 C52,68.6 40.4,57.9 40.4,44.7 C40.4,31.4 52,20.7 66.2,20.7 Z" fill="#6E6E6E" transform="translate(-66.2, -44.7)"/>
        <!-- Pupil (Kept for physical representation) -->
        <ellipse cx="0" cy="0" rx="14.4" ry="11.4" fill="#6E6E6E"/>
    </g>
</svg>
