<svg width="64" height="64" viewBox="0 0 64 64" fill="none" xmlns="http://www.w3.org/2000/svg">
    <path d="M11 2C11.5523 2 12 2.44772 12 3V9H6C5.44772 9 5 9.44772 5 10V14C4.44772 14 4 13.5523 4 13V6H6C7.10457 6 8 5.10457 8 4V2H11Z" fill="#45322B"/>
    <path d="M7 4C7 4.06893 6.99277 4.13617 6.97949 4.20117C6.88625 4.65686 6.48325 5 6 5H4.41406L7 2.41406V4Z" fill="#45322B"/>
    <path fill-rule="evenodd" clip-rule="evenodd" d="M11 1C12.1046 1 13 1.89543 13 3V9H12V3C12 2.44772 11.5523 2 11 2H8V4C8 5.10457 7.10457 6 6 6H4V13C4 13.5523 4.44772 14 5 14V15C3.89543 15 3 14.1046 3 13V5.41406C3.00004 5.1489 3.10547 4.89453 3.29297 4.70703L6.70703 1.29297C6.89453 1.10547 7.1489 1.00004 7.41406 1H11ZM4.41406 5H6C6.55228 5 7 4.55228 7 4V2.41406L4.41406 5Z" fill="#C77D55"/>
    <!-- Nested Blender Logo -->
    <g transform="translate(11, 13) scale(0.07)">
        <!-- Outer Ring/Fingers -->
        <path d="M51.2,2.8 C49.6,1.4 47.4,-2.4 49.9,-4.9 C52.4,-7.3 55.4,-6.3 57.5,-4.7 C60.6,-2.4 85.8,17.4 88.8,19.7 C96.4,25.7 101.3,34.7 101.3,44.7 C101.3,62.7 85.6,77.3 66.2,77.3 C46.8,77.3 31.1,62.7 31.1,44.7 C31.1,44.6 31.1,44.5 31.1,44.5 C31.1,44.5 16,57.1 11.6,60.7 C7.6,63.9 3.7,63.6 1.4,60.6 C-0.4,58.2 -0.2,53.8 4.6,50.1 C11.7,44.5 40.1,22.4 40.1,22.4 C40.1,22.4 25.9,22.5 21.6,22.5 C16.1,22.5 14.8,19.7 14.8,17.2 C14.8,14.7 17.9,12.3 22,12.2 C29.9,12.1 62.1,12.2 62.1,12.2 C62.1,12.2 53.9,5.2 51.2,2.8 Z M66.2,20.7 C80.4,20.7 91.9,31.4 91.9,44.7 C91.9,57.9 80.4,68.6 66.2,68.6 C52,68.6 40.4,57.9 40.4,44.7 C40.4,31.4 52,20.7 66.2,20.7 Z" fill="#C77D55" transform="translate(-66.2, -44.7)"/>
        <!-- Inner White -->
        <ellipse cx="0" cy="0" rx="25.8" ry="19.2" fill="#FFFFFF"/>
        <!-- Pupil -->
        <ellipse cx="0" cy="0" rx="14.4" ry="11.4" fill="#265787"/>
    </g>
</svg>
