<svg width="100%" height="100%" viewBox="0 0 14 14" version="1.1" xmlns="http://www.w3.org/2000/svg" xmlns:xlink="http://www.w3.org/1999/xlink" xml:space="preserve" xmlns:serif="http://www.serif.com/" style="fill-rule:evenodd;clip-rule:evenodd;stroke-linecap:round;stroke-linejoin:round;stroke-miterlimit:1.5;">
    <g id="BlenderDevLogo">
        <path id="Body" d="M1.4,5.5c0,-0.828 0.672,-1.5 1.5,-1.5c0.386,0 0.747,0 0.945,0c0.041,0 0.08,-0.016 0.11,-0.045c0.029,-0.03 0.045,-0.069 0.045,-0.11c-0,-0.325 -0,-1.045 -0,-1.045l4.344,0l0,8.4l-4.344,0l-0,-1.045c-0,-0.041 -0.016,-0.08 -0.045,-0.11c-0.03,-0.029 -0.069,-0.045 -0.11,-0.045c-0.198,-0 -0.559,-0 -0.945,-0c-0.828,0 -1.5,-0.672 -1.5,-1.5c-0,-0.916 -0,-2.084 -0,-3Z" style="fill:#fff;stroke:#e87c0c;stroke-width:0.68px;"/>
        <path id="Core" d="M2.406,5.648c0,-0.351 0.284,-0.636 0.635,-0.638c0.288,-0.001 0.637,-0.003 0.959,-0.005c0.553,-0.003 1,-0.452 1,-1.005c0,0 0,0 0,0l6.863,-0c0.407,0 0.737,0.33 0.737,0.737c0,0.02 0,0.041 0,0.061c-0,0.407 -0.33,0.737 -0.737,0.737c-1.299,-0 -3.863,-0 -3.863,-0l0,2.965l3.863,0c0.407,0 0.737,0.33 0.737,0.737c-0,0.009 -0,0.017 -0,0.026c-0,0.407 -0.33,0.737 -0.737,0.737c-1.908,0 -6.863,0 -6.863,0l0,-0c-0,-0.552 -0.448,-1 -1,-1c-0.321,0 -0.668,0 -0.956,0c-0.352,-0 -0.638,-0.286 -0.638,-0.638c0,-0.745 0,-1.97 0,-2.714Z" style="fill:#265787;"/>
    </g>
</svg>