<?xml version="1.0" encoding="UTF-8" standalone="no"?>
<!-- Copyright 2000-2022 JetBrains s.r.o. and contributors. Use of this source code is governed by the Apache 2.0 license. -->

<svg
   width="16"
   height="16"
   viewBox="0 0 16 16"
   fill="none"
   version="1.1"
   id="svg8"
   sodipodi:docname="addon_src_folder_dark.svg"
   xml:space="preserve"
   inkscape:version="1.4.3 (0d15f75042, 2025-12-25)"
   xmlns:inkscape="http://www.inkscape.org/namespaces/inkscape"
   xmlns:sodipodi="http://sodipodi.sourceforge.net/DTD/sodipodi-0.dtd"
   xmlns="http://www.w3.org/2000/svg"
   xmlns:svg="http://www.w3.org/2000/svg"><defs
     id="defs8" /><sodipodi:namedview
     id="namedview8"
     pagecolor="#ffffff"
     bordercolor="#000000"
     borderopacity="0.25"
     inkscape:showpageshadow="2"
     inkscape:pageopacity="0.0"
     inkscape:pagecheckerboard="0"
     inkscape:deskcolor="#d1d1d1"
     inkscape:zoom="50.955882"
     inkscape:cx="8.3994228"
     inkscape:cy="9.2334776"
     inkscape:window-width="1920"
     inkscape:window-height="1002"
     inkscape:window-x="0"
     inkscape:window-y="0"
     inkscape:window-maximized="1"
     inkscape:current-layer="svg8" /><path
     fill="#888888"
     d="m 91.6575,80.2112 c 0.3307,-5.8951 3.2127,-11.104 7.5794,-14.7845 4.2731,-3.6182 10.0121,-5.8327 16.3131,-5.8327 6.269,0 12.008,2.2114 16.282,5.8327 4.366,3.6805 7.236,8.8894 7.579,14.7845 0.331,6.0511 -2.105,11.6966 -6.363,15.8762 -4.367,4.2416 -10.543,6.9246 -17.498,6.9246 -6.956,0 -13.163,-2.664 -17.4983,-6.9246 -4.2732,-4.1796 -6.7061,-9.7939 -6.363,-15.845 z"
     id="path1-3"
     transform="matrix(0.04396825,0,0,0.04396825,8.1886337,8.4901357)"
     inkscape:label="Blender_Eye"
     style="fill:#3574f0;fill-opacity:1" /><path
     fill="#888888"
     d="m 54.2283,92.6876 c 0.0406,2.3082 0.7767,6.7996 1.8808,10.2934 2.3206,7.423 6.2695,14.285 11.7279,20.305 5.6144,6.207 12.5387,11.198 20.5236,14.753 8.3904,3.712 17.4984,5.615 26.9494,5.615 9.451,-0.013 18.558,-1.947 26.949,-5.708 7.985,-3.587 14.909,-8.578 20.523,-14.816 5.49,-6.082 9.42,-12.944 11.728,-20.368 1.17,-3.7426 1.909,-7.5479 2.205,-11.3532 0.29,-3.7429 0.169,-7.517 -0.365,-11.2911 -1.041,-7.3299 -3.587,-14.2231 -7.485,-20.4613 -3.556,-5.7704 -8.172,-10.7921 -13.662,-15.0341 L 155.215,44.613 100.007,2.19318 C 99.9575,2.15575 99.9169,2.11517 99.8639,2.08086 96.2457,-0.701381 90.1323,-0.692009 86.171,2.09647 82.1474,4.91613 81.6795,9.5823 85.2665,12.5143 l -0.0156,0.0156 23.0501,18.7458 -70.1797,0.0748 h -0.0936 c -5.8015,0.0062 -11.3847,3.8054 -12.4764,8.64 -1.1353,4.897 2.8072,8.9829 8.8583,8.9829 L 34.4002,48.9953 69.9579,48.9267 6.32833,97.5846 c -0.0811,0.0593 -0.16844,0.1216 -0.2433,0.1809 -5.9886716,4.5855 -7.92252,12.2265 -4.14841,17.0305 3.83649,4.897 11.97738,4.928 18.02838,0.028 L 54.587,86.4401 c 0,0 -0.5053,3.8365 -0.4647,6.1134 z m 89.2067,12.8194 c -7.143,7.268 -17.155,11.416 -27.948,11.416 -10.823,0.019 -20.8351,-4.055 -27.9779,-11.322 -3.4934,-3.556 -6.051,-7.6109 -7.6418,-11.9465 -1.5502,-4.2731 -2.1521,-8.7958 -1.7529,-13.3497 0.3774,-4.4603 1.7061,-8.7335 3.8365,-12.57 2.0835,-3.7741 4.9594,-7.2051 8.4839,-10.1058 6.9556,-5.6456 15.7832,-8.7336 25.0152,-8.7336 9.264,-0.0124 18.091,3.0224 25.046,8.6711 3.525,2.8821 6.395,6.3007 8.484,10.0748 2.131,3.8365 3.463,8.0784 3.837,12.5699 0.393,4.5539 -0.209,9.0766 -1.759,13.3498 -1.585,4.3667 -4.149,8.422 -7.642,11.977 z"
     id="path2-6"
     transform="matrix(0.04396825,0,0,0.04396825,8.1886337,8.4901357)"
     inkscape:label="Blender_Ring"
     style="fill:#3574f0;fill-opacity:1" /><path
     fill-rule="evenodd"
     clip-rule="evenodd"
     d="M1 3.86667C1 2.83574 1.7835 2 2.75 2H6.03823C6.29871 2 6.5489 2.10163 6.73559 2.28327L8.5 4L13 4C14.1046 4 15 4.89543 15 6V8.17071C14.6872 8.06015 14.3506 8 14 8H11C9.34315 8 8 9.34315 8 11V14H2.75C1.7835 14 1 13.1643 1 12.1333V3.86667Z"
     fill="#25324D"
     id="path1" /><path
     fill-rule="evenodd"
     clip-rule="evenodd"
     d="M7.80265 4.71673L8.09379 5H8.5H13C13.5523 5 14 5.44772 14 6V8C14.3506 8 14.6872 8.06015 15 8.17071V6C15 4.89543 14.1046 4 13 4L8.5 4L6.73559 2.28327C6.5489 2.10163 6.29871 2 6.03823 2H2.75C1.7835 2 1 2.83574 1 3.86667V12.1333C1 13.1643 1.7835 14 2.75 14H8V13H2.75C2.3956 13 2 12.6738 2 12.1333V3.86667C2 3.32624 2.3956 3 2.75 3H6.03823L7.80265 4.71673Z"
     fill="#3574F0"
     id="path2" /></svg>
