<?xml version="1.0" encoding="UTF-8" standalone="no"?>
<!DOCTYPE svg PUBLIC "-//W3C//DTD SVG 1.1//EN" "http://www.w3.org/Graphics/SVG/1.1/DTD/svg11.dtd">
<svg width="100%" height="100%" viewBox="0 0 67 67" version="1.1" xmlns="http://www.w3.org/2000/svg" xmlns:xlink="http://www.w3.org/1999/xlink" xml:space="preserve" xmlns:serif="http://www.serif.com/" style="fill-rule:evenodd;clip-rule:evenodd;stroke-linejoin:round;stroke-miterlimit:2;">
    <g transform="matrix(0.342616,0,0,0.342616,3.00956,8.65906)">
        <path d="M54.228,92.688C54.269,94.996 55.005,99.487 56.109,102.981C58.43,110.404 62.379,117.266 67.837,123.286C73.451,129.493 80.376,134.484 88.361,138.039C96.751,141.751 105.859,143.654 115.31,143.654C124.761,143.641 133.868,141.707 142.259,137.946C150.244,134.359 157.168,129.368 162.782,123.13C168.272,117.048 172.202,110.186 174.51,102.762C175.68,99.019 176.419,95.214 176.715,91.409C177.005,87.666 176.884,83.892 176.35,80.118C175.309,72.788 172.763,65.895 168.865,59.656C165.309,53.886 160.693,48.864 155.203,44.622L155.215,44.613L100.007,2.193C99.958,2.156 99.917,2.115 99.864,2.081C96.246,-0.701 90.132,-0.692 86.171,2.096C82.147,4.916 81.68,9.582 85.266,12.514L85.251,12.53L108.301,31.276L38.121,31.351L38.028,31.351C32.226,31.357 26.643,35.156 25.551,39.991C24.416,44.888 28.359,48.973 34.41,48.973L34.4,48.995L69.958,48.927L6.328,97.585C6.247,97.644 6.16,97.706 6.085,97.766C0.096,102.351 -1.837,109.992 1.937,114.796C5.773,119.693 13.914,119.724 19.965,114.824L54.587,86.44C54.587,86.44 54.082,90.277 54.122,92.554L54.228,92.688Z" style="fill:none;fill-rule:nonzero;stroke:rgb(214,214,214);stroke-width:9.12px;"/>
    </g>
    <g transform="matrix(0.325828,0,0,0.325828,5.86783,10.4281)">
        <path d="M135.327,111.746C129.464,115.097 122.647,116.923 115.487,116.923C104.664,116.942 94.652,112.868 87.509,105.601C84.016,102.045 81.458,97.99 79.867,93.655C78.317,89.381 77.715,84.859 78.114,80.305C78.492,75.845 79.821,71.571 81.951,67.735C84.034,63.961 86.91,60.53 90.435,57.629C97.39,51.983 106.218,48.895 115.45,48.895C124.714,48.883 133.541,51.918 140.496,57.567C144.021,60.449 146.891,63.867 148.98,67.641C151.111,71.478 152.443,75.72 152.817,80.211C153.21,84.765 152.608,89.288 151.058,93.561C149.473,97.928 146.909,101.983 143.416,105.538L143.435,105.507C142.445,106.515 141.399,107.462 140.304,108.348L136.119,98.368C138.542,95.902 140.341,93.101 141.441,90.072C142.484,87.197 142.889,84.154 142.625,81.091L142.622,81.06C142.37,78.04 141.47,75.189 140.037,72.609L140.029,72.596C138.556,69.933 136.519,67.532 134.034,65.497C128.88,61.317 122.325,59.117 115.464,59.126L115.45,59.126C108.613,59.126 102.065,61.376 96.909,65.55C94.423,67.602 92.379,70.013 90.907,72.679L90.895,72.701C89.46,75.285 88.563,78.163 88.308,81.167L88.306,81.198C88.038,84.251 88.441,87.283 89.478,90.148C90.585,93.158 92.38,95.961 94.806,98.431C100.073,103.788 107.489,106.707 115.469,106.693L115.487,106.693C123.452,106.693 130.867,103.699 136.139,98.336C135.588,98.897 135.111,99.51 134.712,100.162C133.885,101.511 133.452,102.783 133.32,103.976C133.044,105.795 133.258,107.692 134,109.463C134.348,110.291 134.796,111.056 135.327,111.746ZM134.712,100.162C135.573,98.756 138.147,103.687 140.275,108.371C139.022,109.381 137.706,110.309 136.332,111.151C134.443,109.276 133,106.862 133.32,103.976C133.523,102.634 133.992,101.336 134.712,100.162Z" style="fill:rgb(214,214,214);"/>
    </g>
</svg>
